# xmcd
#
# Track frame offsets:
#	150
#	18095
#	37829
#	52516
#	70876
#	86934
#	103413
#	122555
#	138997
#	159130
#	175196
#	191613
#	203416
#	220023
#	233115
#	249876
#
# Disc length: 3519 seconds
#
# Revision: 1
# Processed by: cddbd v1.5.2PL0 Copyright (c) Steve Scherf et al.
# Submitted via: audiograbber 1.83.01
#
DISCID=c30dbd10
DTITLE=Various Artist - My Country Vol 2 - CD2
DYEAR=2010
DGENRE=Country
TTITLE0=Taylor Swift - Love Story
TTITLE1=Alan Jackson - Gone Country
TTITLE2=Josh Turner - Why Don't We Just Dance
TTITLE3=Travis Tritt - It's A Great Day To Be Alive
TTITLE4=Rodney Jenkins - It's America
TTITLE5=Reba Mcentire - Consider Me Gone
TTITLE6=Gary Allan - Best I Ever Had
TTITLE7=James Otto - Groovy Little Summer Song
TTITLE8=Leann Rimes - How Do I Live
TTITLE9=Whitney Duncan - Skinny Dippin'
TTITLE10=Clay Walker - Fall
TTITLE11=Dwight Yoakam - Only Hurts Me When I Cry
TTITLE12=John Rich - The Good Lord And The Man
TTITLE13=Luke Bryan - Appologize
TTITLE14=Jessica Harp - A Woman Needs
TTITLE15=Jake Owen - Don't Think I Can Love You
EXTD=
EXTT0=
EXTT1=
EXTT2=
EXTT3=
EXTT4=
EXTT5=
EXTT6=
EXTT7=
EXTT8=
EXTT9=
EXTT10=
EXTT11=
EXTT12=
EXTT13=
EXTT14=
EXTT15=
PLAYORDER=
